<mxfile host="app.diagrams.net" modified="2021-08-11T05:46:49.149Z" agent="5.0 (Windows)" etag="grtQJ71EWJ9CZi2JDjNW" version="14.7.3" type="github">
  <diagram id="h_oixrNpnc-t15W7_CNh" name="Page-1">
    <mxGraphModel dx="723" dy="367" grid="1" gridSize="10" guides="1" tooltips="1" connect="1" arrows="1" fold="1" page="1" pageScale="1" pageWidth="827" pageHeight="1169" math="0" shadow="0">
      <root>
        <mxCell id="0" />
        <mxCell id="1" parent="0" />
        <mxCell id="nbYiO903V4RhnRelEvoL-1" value="" style="shape=umlActor;verticalLabelPosition=bottom;verticalAlign=top;html=1;outlineConnect=0;" vertex="1" parent="1">
          <mxGeometry x="20" y="460" width="30" height="60" as="geometry" />
        </mxCell>
        <mxCell id="nbYiO903V4RhnRelEvoL-3" value="Admin" style="rounded=0;whiteSpace=wrap;html=1;" vertex="1" parent="1">
          <mxGeometry y="520" width="70" height="30" as="geometry" />
        </mxCell>
        <mxCell id="nbYiO903V4RhnRelEvoL-4" value="Login" style="ellipse;whiteSpace=wrap;html=1;" vertex="1" parent="1">
          <mxGeometry x="370" width="120" height="40" as="geometry" />
        </mxCell>
        <mxCell id="nbYiO903V4RhnRelEvoL-5" value="Arrange Schedule " style="ellipse;whiteSpace=wrap;html=1;" vertex="1" parent="1">
          <mxGeometry x="97" y="90" width="100" height="40" as="geometry" />
        </mxCell>
        <mxCell id="nbYiO903V4RhnRelEvoL-8" value="" style="endArrow=classic;html=1;exitX=1;exitY=0.5;exitDx=0;exitDy=0;" edge="1" parent="1" source="nbYiO903V4RhnRelEvoL-22">
          <mxGeometry width="50" height="50" relative="1" as="geometry">
            <mxPoint x="170" y="58" as="sourcePoint" />
            <mxPoint x="370" y="58" as="targetPoint" />
          </mxGeometry>
        </mxCell>
        <mxCell id="nbYiO903V4RhnRelEvoL-9" value="Include" style="text;html=1;align=center;verticalAlign=middle;resizable=0;points=[];autosize=1;strokeColor=none;" vertex="1" parent="1">
          <mxGeometry x="220" y="40" width="60" height="20" as="geometry" />
        </mxCell>
        <mxCell id="nbYiO903V4RhnRelEvoL-10" value="Trip info" style="ellipse;whiteSpace=wrap;html=1;" vertex="1" parent="1">
          <mxGeometry x="365" y="47.5" width="120" height="15" as="geometry" />
        </mxCell>
        <mxCell id="nbYiO903V4RhnRelEvoL-11" value="" style="endArrow=none;html=1;exitX=0.683;exitY=-0.122;exitDx=0;exitDy=0;exitPerimeter=0;" edge="1" parent="1" source="nbYiO903V4RhnRelEvoL-3" target="nbYiO903V4RhnRelEvoL-4">
          <mxGeometry width="50" height="50" relative="1" as="geometry">
            <mxPoint x="40" y="330" as="sourcePoint" />
            <mxPoint x="100" y="280" as="targetPoint" />
            <Array as="points">
              <mxPoint x="40" y="20" />
            </Array>
          </mxGeometry>
        </mxCell>
        <mxCell id="nbYiO903V4RhnRelEvoL-12" value="Update Trip" style="ellipse;whiteSpace=wrap;html=1;" vertex="1" parent="1">
          <mxGeometry x="365" y="70" width="120" height="15" as="geometry" />
        </mxCell>
        <mxCell id="nbYiO903V4RhnRelEvoL-13" value="" style="endArrow=classic;html=1;exitX=0;exitY=0.5;exitDx=0;exitDy=0;" edge="1" parent="1" source="nbYiO903V4RhnRelEvoL-12">
          <mxGeometry width="50" height="50" relative="1" as="geometry">
            <mxPoint x="240" y="112.5" as="sourcePoint" />
            <mxPoint x="190" y="70" as="targetPoint" />
          </mxGeometry>
        </mxCell>
        <mxCell id="nbYiO903V4RhnRelEvoL-14" value="Exclude" style="text;html=1;align=center;verticalAlign=middle;resizable=0;points=[];autosize=1;strokeColor=none;" vertex="1" parent="1">
          <mxGeometry x="220" y="70" width="60" height="20" as="geometry" />
        </mxCell>
        <mxCell id="nbYiO903V4RhnRelEvoL-15" value="" style="endArrow=classic;html=1;" edge="1" parent="1" target="nbYiO903V4RhnRelEvoL-16">
          <mxGeometry width="50" height="50" relative="1" as="geometry">
            <mxPoint x="490" y="19.5" as="sourcePoint" />
            <mxPoint x="590" y="19.5" as="targetPoint" />
          </mxGeometry>
        </mxCell>
        <mxCell id="nbYiO903V4RhnRelEvoL-16" value="Sign Up" style="ellipse;whiteSpace=wrap;html=1;" vertex="1" parent="1">
          <mxGeometry x="530" y="10" width="90" height="20" as="geometry" />
        </mxCell>
        <mxCell id="nbYiO903V4RhnRelEvoL-18" value="" style="endArrow=classic;html=1;" edge="1" parent="1">
          <mxGeometry width="50" height="50" relative="1" as="geometry">
            <mxPoint x="620" y="19.5" as="sourcePoint" />
            <mxPoint x="660" y="20" as="targetPoint" />
          </mxGeometry>
        </mxCell>
        <mxCell id="nbYiO903V4RhnRelEvoL-19" value="Role info" style="ellipse;whiteSpace=wrap;html=1;" vertex="1" parent="1">
          <mxGeometry x="660" y="10" width="100" height="20" as="geometry" />
        </mxCell>
        <mxCell id="nbYiO903V4RhnRelEvoL-20" value="" style="endArrow=classic;html=1;exitX=1;exitY=1;exitDx=0;exitDy=0;exitPerimeter=0;" edge="1" parent="1" source="nbYiO903V4RhnRelEvoL-1">
          <mxGeometry width="50" height="50" relative="1" as="geometry">
            <mxPoint x="45.5" y="330" as="sourcePoint" />
            <mxPoint x="73" y="50" as="targetPoint" />
            <Array as="points">
              <mxPoint x="46" y="50" />
            </Array>
          </mxGeometry>
        </mxCell>
        <mxCell id="nbYiO903V4RhnRelEvoL-21" value="" style="endArrow=classic;html=1;" edge="1" parent="1">
          <mxGeometry width="50" height="50" relative="1" as="geometry">
            <mxPoint x="56" y="520" as="sourcePoint" />
            <mxPoint x="86" y="110" as="targetPoint" />
            <Array as="points">
              <mxPoint x="56" y="110" />
            </Array>
          </mxGeometry>
        </mxCell>
        <mxCell id="nbYiO903V4RhnRelEvoL-22" value="Manage Regular Trip" style="ellipse;whiteSpace=wrap;html=1;" vertex="1" parent="1">
          <mxGeometry x="80" y="35" width="110" height="50" as="geometry" />
        </mxCell>
        <mxCell id="nbYiO903V4RhnRelEvoL-23" value="" style="endArrow=classic;html=1;exitX=1;exitY=0.5;exitDx=0;exitDy=0;" edge="1" parent="1" source="nbYiO903V4RhnRelEvoL-5">
          <mxGeometry width="50" height="50" relative="1" as="geometry">
            <mxPoint x="200" y="112" as="sourcePoint" />
            <mxPoint x="380" y="110" as="targetPoint" />
          </mxGeometry>
        </mxCell>
        <mxCell id="nbYiO903V4RhnRelEvoL-24" value="Time" style="ellipse;whiteSpace=wrap;html=1;" vertex="1" parent="1">
          <mxGeometry x="380" y="100" width="120" height="15" as="geometry" />
        </mxCell>
        <mxCell id="nbYiO903V4RhnRelEvoL-25" value="Location" style="ellipse;whiteSpace=wrap;html=1;" vertex="1" parent="1">
          <mxGeometry x="380" y="120" width="120" height="15" as="geometry" />
        </mxCell>
        <mxCell id="nbYiO903V4RhnRelEvoL-26" value="" style="endArrow=classic;html=1;exitX=1.009;exitY=0.64;exitDx=0;exitDy=0;exitPerimeter=0;entryX=0;entryY=0.5;entryDx=0;entryDy=0;" edge="1" parent="1" source="nbYiO903V4RhnRelEvoL-5" target="nbYiO903V4RhnRelEvoL-25">
          <mxGeometry width="50" height="50" relative="1" as="geometry">
            <mxPoint x="210" y="122" as="sourcePoint" />
            <mxPoint x="390" y="120" as="targetPoint" />
          </mxGeometry>
        </mxCell>
        <mxCell id="nbYiO903V4RhnRelEvoL-27" value="Update Schedule" style="ellipse;whiteSpace=wrap;html=1;" vertex="1" parent="1">
          <mxGeometry x="380" y="140" width="120" height="15" as="geometry" />
        </mxCell>
        <mxCell id="nbYiO903V4RhnRelEvoL-28" value="" style="endArrow=classic;html=1;exitX=0;exitY=0.5;exitDx=0;exitDy=0;entryX=0.936;entryY=0.82;entryDx=0;entryDy=0;entryPerimeter=0;" edge="1" parent="1" target="nbYiO903V4RhnRelEvoL-5">
          <mxGeometry width="50" height="50" relative="1" as="geometry">
            <mxPoint x="380" y="147.5" as="sourcePoint" />
            <mxPoint x="205" y="140" as="targetPoint" />
          </mxGeometry>
        </mxCell>
        <mxCell id="nbYiO903V4RhnRelEvoL-29" value="" style="endArrow=classic;html=1;exitX=0.886;exitY=0.067;exitDx=0;exitDy=0;exitPerimeter=0;" edge="1" parent="1" source="nbYiO903V4RhnRelEvoL-3">
          <mxGeometry width="50" height="50" relative="1" as="geometry">
            <mxPoint x="50" y="320" as="sourcePoint" />
            <mxPoint x="100" y="150" as="targetPoint" />
            <Array as="points">
              <mxPoint x="60" y="150" />
            </Array>
          </mxGeometry>
        </mxCell>
        <mxCell id="nbYiO903V4RhnRelEvoL-30" value="SOC Office Employee List" style="ellipse;whiteSpace=wrap;html=1;" vertex="1" parent="1">
          <mxGeometry x="99" y="135" width="100" height="40" as="geometry" />
        </mxCell>
        <mxCell id="nbYiO903V4RhnRelEvoL-32" value="" style="endArrow=classic;html=1;exitX=1.009;exitY=0.64;exitDx=0;exitDy=0;exitPerimeter=0;entryX=0;entryY=0.5;entryDx=0;entryDy=0;" edge="1" parent="1">
          <mxGeometry width="50" height="50" relative="1" as="geometry">
            <mxPoint x="190.00000000000009" y="155" as="sourcePoint" />
            <mxPoint x="389.1" y="166.89999999999998" as="targetPoint" />
          </mxGeometry>
        </mxCell>
        <mxCell id="nbYiO903V4RhnRelEvoL-33" value="Info" style="ellipse;whiteSpace=wrap;html=1;" vertex="1" parent="1">
          <mxGeometry x="390" y="160" width="120" height="15" as="geometry" />
        </mxCell>
        <mxCell id="nbYiO903V4RhnRelEvoL-34" value="Delete Info" style="ellipse;whiteSpace=wrap;html=1;" vertex="1" parent="1">
          <mxGeometry x="390" y="180" width="120" height="15" as="geometry" />
        </mxCell>
        <mxCell id="nbYiO903V4RhnRelEvoL-35" value="" style="endArrow=classic;html=1;exitX=0;exitY=0.5;exitDx=0;exitDy=0;" edge="1" parent="1">
          <mxGeometry width="50" height="50" relative="1" as="geometry">
            <mxPoint x="390" y="186.7" as="sourcePoint" />
            <mxPoint x="190" y="162" as="targetPoint" />
          </mxGeometry>
        </mxCell>
      </root>
    </mxGraphModel>
  </diagram>
</mxfile>
